<svg xmlns="http://www.w3.org/2000/svg" viewBox="0 0 512 512">
  <defs>
    <radialGradient id="bg" cx="50%" cy="28%" r="78%">
      <stop offset="0" stop-color="#173047"/>
      <stop offset="1" stop-color="#061018"/>
    </radialGradient>
    <radialGradient id="bulb" cx="38%" cy="28%" r="70%">
      <stop offset="0" stop-color="#fffde0"/>
      <stop offset=".34" stop-color="#fff08b"/>
      <stop offset="1" stop-color="#ffc62d"/>
    </radialGradient>
  </defs>
  <rect width="512" height="512" fill="url(#bg)"/>
  <circle cx="256" cy="224" r="100" fill="url(#bulb)" stroke="#fff3a3" stroke-width="14"/>
  <path d="M220 316h72v51c0 20-16 36-36 36s-36-16-36-36z" fill="#8f722d"/>
  <path d="M228 344h56M231 365h50" stroke="#d8b94e" stroke-width="10" stroke-linecap="round"/>
  <path d="M256 102V68M153 147l-25-25M359 147l25-25M132 233H96M380 233h36" stroke="#ffd64c" stroke-width="16" stroke-linecap="round"/>
  <path d="M232 206l24-40 18 34 25-8-39 61-20-36-25 10z" fill="#684900" opacity=".55"/>
</svg>
